<svg xmlns="http://www.w3.org/2000/svg" xmlns:xlink="http://www.w3.org/1999/xlink" width="200" zoomAndPan="magnify" viewBox="0 0 150 149.999998" height="200" preserveAspectRatio="xMidYMid meet" version="1.0"><rect x="-15" width="180" fill="#ffffff" y="-15" height="179.999997" fill-opacity="1"/><rect x="-15" width="180" fill="#ffffff" y="-15" height="179.999997" fill-opacity="1"/><path fill="#f949b2" d="M 113.320312 144.644531 C 113.320312 144.644531 95.597656 144.644531 95.597656 144.644531 C 95.597656 144.644531 75.054688 111.613281 75.054688 111.613281 C 75.054688 111.613281 54.515625 144.644531 54.515625 144.644531 C 54.515625 144.644531 36.789062 144.644531 36.789062 144.644531 C 36.789062 144.644531 75.054688 83.121094 75.054688 83.121094 C 75.054688 83.121094 113.320312 144.644531 113.320312 144.644531 Z M 113.320312 144.644531 " fill-opacity="1" fill-rule="nonzero"/><path fill="#6ed7ef" d="M 113.320312 101.71875 C 113.320312 101.71875 95.597656 101.71875 95.597656 101.71875 C 95.597656 101.71875 75.054688 68.683594 75.054688 68.683594 C 75.054688 68.683594 54.515625 101.71875 54.515625 101.71875 C 54.515625 101.71875 36.789062 101.71875 36.789062 101.71875 C 36.789062 101.71875 75.054688 40.191406 75.054688 40.191406 C 75.054688 40.191406 113.320312 101.71875 113.320312 101.71875 Z M 113.320312 101.71875 " fill-opacity="1" fill-rule="nonzero"/></svg>